<svg width="40" height="40" fill="none" xmlns="http://www.w3.org/2000/svg"><path fill-rule="evenodd" clip-rule="evenodd" d="M26.667 15a6.667 6.667 0 1 1-13.334 0 6.667 6.667 0 0 1 13.334 0Zm-3.334 0a3.333 3.333 0 1 1-6.666 0 3.333 3.333 0 0 1 6.666 0Z" fill="#000"/><path fill-rule="evenodd" clip-rule="evenodd" d="M20 1.667C9.875 1.667 1.667 9.875 1.667 20c0 10.125 8.208 18.333 18.333 18.333 10.125 0 18.333-8.208 18.333-18.333C38.333 9.875 30.125 1.667 20 1.667ZM5 20c0 3.483 1.188 6.69 3.18 9.237a14.975 14.975 0 0 1 11.928-5.904 14.973 14.973 0 0 1 11.82 5.764A15 15 0 1 0 5 20Zm15 15a14.938 14.938 0 0 1-9.453-3.353 11.653 11.653 0 0 1 9.561-4.98 11.65 11.65 0 0 1 9.482 4.866A14.94 14.94 0 0 1 20 35Z" fill="#000"/></svg>